<svg xmlns="http://www.w3.org/2000/svg" width="208.797" height="53.881" viewBox="0 0 208.797 53.881"><circle fill="#FFF" cx="127.573" cy="14.61" r="13.697"/><circle fill="#FFF" cx="157.624" cy="13.698" r="13.698"/><circle fill="#FFF" cx="188.322" cy="13.698" r="13.697"/><path fill="#FFF" d="M0 53.133V9.283h15.35l9.218 29.911 9.113-29.911h15.386v43.85h-9.529V18.615L29.453 53.133h-9.875L9.529 18.615v34.518H0zm88.49-16.121l9.498 2.721c-1.456 4.786-3.877 8.341-7.264 10.664s-7.683 3.484-12.888 3.484c-6.442 0-11.737-1.989-15.884-5.967-4.146-3.979-6.221-9.417-6.221-16.316 0-7.299 2.084-12.967 6.254-17.005s9.651-6.058 16.445-6.058c5.934 0 10.755 1.586 14.461 4.756 2.206 1.875 3.86 4.567 4.963 8.076l-9.695 2.094c-.574-2.273-1.77-4.067-3.59-5.384-1.82-1.315-4.033-1.974-6.635-1.974-3.596 0-6.514 1.166-8.752 3.499-2.24 2.333-3.359 6.112-3.359 11.337 0 5.543 1.104 9.492 3.31 11.844 2.206 2.354 5.073 3.53 8.604 3.53 2.602 0 4.84-.748 6.717-2.243 1.875-1.496 3.22-3.848 4.036-7.058zm19.014 4.645l2.754-.42c.117.534.355.938.713 1.216.359.277.859.415 1.504.415.711 0 1.244-.13 1.602-.391a.87.87 0 0 0 .361-.732.719.719 0 0 0-.195-.518c-.137-.13-.441-.251-.918-.361-2.213-.488-3.615-.935-4.209-1.338-.82-.56-1.23-1.338-1.23-2.334 0-.898.355-1.653 1.064-2.266.711-.612 1.811-.918 3.301-.918 1.42 0 2.475.231 3.164.693.691.462 1.166 1.146 1.426 2.051l-2.588.479c-.109-.403-.32-.713-.629-.928s-.75-.322-1.324-.322c-.723 0-1.24.101-1.553.303-.207.144-.313.329-.313.557 0 .195.092.361.273.498.248.183 1.104.439 2.564.771s2.482.739 3.061 1.221c.574.488.859 1.169.859 2.041 0 .95-.396 1.768-1.191 2.451-.793.684-1.969 1.025-3.525 1.025-1.412 0-2.529-.286-3.354-.859s-1.363-1.35-1.617-2.334zm20.096-.342l2.734.459c-.352 1.003-.906 1.767-1.664 2.29s-1.707.786-2.847.786c-1.803 0-3.137-.589-4.004-1.768-.684-.944-1.025-2.136-1.025-3.574 0-1.719.449-3.065 1.348-4.038s2.035-1.46 3.408-1.46c1.542 0 2.761.509 3.652 1.528.893 1.02 1.318 2.58 1.279 4.683h-6.875c.02.813.242 1.446.664 1.899.424.453.951.679 1.582.679.429 0 .791-.117 1.083-.352s.516-.611.665-1.132zm.156-2.773c-.02-.794-.225-1.397-.615-1.812s-.865-.62-1.425-.62c-.598 0-1.094.218-1.484.654s-.582 1.028-.576 1.777h4.1zm9.588 6.074H134.6V34.245h2.549v1.475c.438-.696.83-1.155 1.178-1.377s.744-.332 1.186-.332c.625 0 1.229.173 1.807.518l-.85 2.393c-.461-.3-.891-.449-1.289-.449-.383 0-.709.106-.977.317-.266.211-.477.594-.629 1.147s-.23 1.712-.23 3.477v3.202zm10.008 0l-4.18-10.371h2.881l1.953 5.293.566 1.768c.15-.449.244-.745.283-.889.092-.293.189-.586.293-.879l1.973-5.293h2.822l-4.121 10.371h-2.47zm10.271-11.777V30.3h2.744v2.539h-2.744zm0 11.777V34.245h2.744v10.371h-2.744zm16.6-7.304l-2.705.488c-.09-.54-.297-.947-.619-1.221s-.74-.41-1.256-.41c-.684 0-1.229.235-1.635.708s-.611 1.262-.611 2.368c0 1.23.207 2.1.621 2.607s.969.762 1.664.762c.521 0 .947-.147 1.279-.444s.566-.806.703-1.528l2.695.459c-.279 1.237-.816 2.171-1.611 2.803-.793.632-1.857.947-3.193.947-1.516 0-2.725-.479-3.627-1.436s-1.354-2.282-1.354-3.975c0-1.712.453-3.046 1.357-3.999.906-.953 2.129-1.431 3.672-1.431 1.264 0 2.268.272 3.014.815s1.281 1.373 1.606 2.487zm4.08-4.473V30.3h2.744v2.539h-2.744zm0 11.777V34.245h2.744v10.371h-2.744zm6.922-5.332c0-.911.225-1.794.674-2.646s1.086-1.504 1.91-1.953 1.742-.674 2.758-.674c1.57 0 2.855.509 3.857 1.528 1.004 1.02 1.504 2.307 1.504 3.862 0 1.569-.506 2.87-1.518 3.901s-2.287 1.548-3.824 1.548c-.949 0-1.855-.215-2.719-.645s-1.52-1.06-1.969-1.89-.673-1.839-.673-3.031zm2.812.147c0 1.028.244 1.816.732 2.363s1.092.82 1.807.82c.717 0 1.318-.273 1.803-.82s.727-1.341.727-2.383c0-1.016-.242-1.797-.727-2.344s-1.086-.82-1.803-.82c-.715 0-1.318.273-1.807.82s-.732 1.335-.732 2.364zm11.072 2.226l2.754-.42c.117.534.355.938.713 1.216.359.277.859.415 1.504.415.711 0 1.244-.13 1.602-.391a.87.87 0 0 0 .361-.732.719.719 0 0 0-.195-.518c-.137-.13-.441-.251-.918-.361-2.213-.488-3.615-.935-4.209-1.338-.82-.56-1.23-1.338-1.23-2.334 0-.898.355-1.653 1.064-2.266.711-.612 1.811-.918 3.301-.918 1.42 0 2.475.231 3.164.693.691.462 1.166 1.146 1.426 2.051l-2.588.479c-.109-.403-.32-.713-.629-.928s-.75-.322-1.324-.322c-.723 0-1.24.101-1.553.303-.207.144-.313.329-.313.557 0 .195.092.361.273.498.248.183 1.104.439 2.564.771s2.482.739 3.061 1.221c.574.488.859 1.169.859 2.041 0 .95-.396 1.768-1.191 2.451-.793.684-1.969 1.025-3.525 1.025-1.412 0-2.529-.286-3.354-.859s-1.363-1.35-1.617-2.334zm-91.605 7.001h101.292v5.019H107.504z"/></svg>