<?xml version="1.0" encoding="utf-8"?>
<!-- Generator: Adobe Illustrator 16.0.0, SVG Export Plug-In . SVG Version: 6.00 Build 0)  -->
<!DOCTYPE svg PUBLIC "-//W3C//DTD SVG 1.1//EN" "http://www.w3.org/Graphics/SVG/1.1/DTD/svg11.dtd">
<svg version="1.1" id="Capa_1" xmlns="http://www.w3.org/2000/svg" xmlns:xlink="http://www.w3.org/1999/xlink" x="0px" y="0px"
	 width="208.797px" height="53.881px" viewBox="0 0 208.797 53.881" enable-background="new 0 0 208.797 53.881"
	 xml:space="preserve">
<g>
	<circle fill="#FFFFFF" cx="127.573" cy="14.61" r="13.697"/>
	<circle fill="#FFFFFF" cx="157.624" cy="13.698" r="13.698"/>
	<circle fill="#FFFFFF" cx="188.322" cy="13.698" r="13.697"/>
	<path fill="#FFFFFF" d="M0,53.133V9.283h15.35l9.218,29.911l9.113-29.911h15.386v43.85h-9.529V18.615L29.453,53.133h-9.875
		L9.529,18.615v34.518H0z"/>
	<path fill="#FFFFFF" d="M88.49,37.012l9.498,2.721c-1.456,4.786-3.877,8.341-7.264,10.664s-7.683,3.484-12.888,3.484
		c-6.442,0-11.737-1.989-15.884-5.967c-4.146-3.979-6.221-9.417-6.221-16.316c0-7.299,2.084-12.967,6.254-17.005
		s9.651-6.058,16.445-6.058c5.934,0,10.755,1.586,14.461,4.756c2.206,1.875,3.86,4.567,4.963,8.076l-9.695,2.094
		c-0.574-2.273-1.77-4.067-3.59-5.384c-1.82-1.315-4.033-1.974-6.635-1.974c-3.596,0-6.514,1.166-8.752,3.499
		c-2.24,2.333-3.359,6.112-3.359,11.337c0,5.543,1.104,9.492,3.31,11.844c2.206,2.354,5.073,3.53,8.604,3.53
		c2.602,0,4.84-0.748,6.717-2.243C86.329,42.574,87.674,40.222,88.49,37.012z"/>
	<g>
		<g>
			<path fill="#FFFFFF" d="M107.504,41.657l2.754-0.42c0.117,0.534,0.355,0.938,0.713,1.216c0.359,0.277,0.859,0.415,1.504,0.415
				c0.711,0,1.244-0.13,1.602-0.391c0.242-0.183,0.361-0.427,0.361-0.732c0-0.208-0.064-0.381-0.195-0.518
				c-0.137-0.13-0.441-0.251-0.918-0.361c-2.213-0.488-3.615-0.935-4.209-1.338c-0.82-0.56-1.23-1.338-1.23-2.334
				c0-0.898,0.355-1.653,1.064-2.266c0.711-0.612,1.811-0.918,3.301-0.918c1.42,0,2.475,0.231,3.164,0.693
				c0.691,0.462,1.166,1.146,1.426,2.051l-2.588,0.479c-0.109-0.403-0.32-0.713-0.629-0.928s-0.75-0.322-1.324-0.322
				c-0.723,0-1.24,0.101-1.553,0.303c-0.207,0.144-0.313,0.329-0.313,0.557c0,0.195,0.092,0.361,0.273,0.498
				c0.248,0.183,1.104,0.439,2.564,0.771s2.482,0.739,3.061,1.221c0.574,0.488,0.859,1.169,0.859,2.041
				c0,0.95-0.396,1.768-1.191,2.451c-0.793,0.684-1.969,1.025-3.525,1.025c-1.412,0-2.529-0.286-3.354-0.859
				S107.758,42.641,107.504,41.657z"/>
			<path fill="#FFFFFF" d="M127.6,41.315l2.734,0.459c-0.352,1.003-0.906,1.767-1.664,2.29s-1.707,0.786-2.847,0.786
				c-1.803,0-3.137-0.589-4.004-1.768c-0.684-0.944-1.025-2.136-1.025-3.574c0-1.719,0.449-3.065,1.348-4.038s2.035-1.46,3.408-1.46
				c1.542,0,2.761,0.509,3.652,1.528c0.893,1.02,1.318,2.58,1.279,4.683h-6.875c0.02,0.813,0.242,1.446,0.664,1.899
				c0.424,0.453,0.951,0.679,1.582,0.679c0.429,0,0.791-0.117,1.083-0.352S127.451,41.836,127.6,41.315z M127.756,38.542
				c-0.02-0.794-0.225-1.397-0.615-1.812s-0.865-0.62-1.425-0.62c-0.598,0-1.094,0.218-1.484,0.654s-0.582,1.028-0.576,1.777
				H127.756z"/>
			<path fill="#FFFFFF" d="M137.344,44.616H134.6V34.245h2.549v1.475c0.438-0.696,0.83-1.155,1.178-1.377s0.744-0.332,1.186-0.332
				c0.625,0,1.229,0.173,1.807,0.518l-0.85,2.393c-0.461-0.3-0.891-0.449-1.289-0.449c-0.383,0-0.709,0.106-0.977,0.317
				c-0.266,0.211-0.477,0.594-0.629,1.147s-0.23,1.712-0.23,3.477V44.616z"/>
			<path fill="#FFFFFF" d="M147.352,44.616l-4.18-10.371h2.881l1.953,5.293l0.566,1.768c0.15-0.449,0.244-0.745,0.283-0.889
				c0.092-0.293,0.189-0.586,0.293-0.879l1.973-5.293h2.822l-4.121,10.371H147.352z"/>
			<path fill="#FFFFFF" d="M157.623,32.839V30.3h2.744v2.539H157.623z M157.623,44.616V34.245h2.744v10.371H157.623z"/>
			<path fill="#FFFFFF" d="M174.223,37.312l-2.705,0.488c-0.09-0.54-0.297-0.947-0.619-1.221s-0.74-0.41-1.256-0.41
				c-0.684,0-1.229,0.235-1.635,0.708s-0.611,1.262-0.611,2.368c0,1.23,0.207,2.1,0.621,2.607s0.969,0.762,1.664,0.762
				c0.521,0,0.947-0.147,1.279-0.444s0.566-0.806,0.703-1.528l2.695,0.459c-0.279,1.237-0.816,2.171-1.611,2.803
				c-0.793,0.632-1.857,0.947-3.193,0.947c-1.516,0-2.725-0.479-3.627-1.436s-1.354-2.282-1.354-3.975
				c0-1.712,0.453-3.046,1.357-3.999c0.906-0.953,2.129-1.431,3.672-1.431c1.264,0,2.268,0.272,3.014,0.815
				S173.898,36.198,174.223,37.312z"/>
			<path fill="#FFFFFF" d="M178.303,32.839V30.3h2.744v2.539H178.303z M178.303,44.616V34.245h2.744v10.371H178.303z"/>
			<path fill="#FFFFFF" d="M185.225,39.284c0-0.911,0.225-1.794,0.674-2.646s1.086-1.504,1.91-1.953s1.742-0.674,2.758-0.674
				c1.57,0,2.855,0.509,3.857,1.528c1.004,1.02,1.504,2.307,1.504,3.862c0,1.569-0.506,2.87-1.518,3.901s-2.287,1.548-3.824,1.548
				c-0.949,0-1.855-0.215-2.719-0.645s-1.52-1.06-1.969-1.89S185.225,40.476,185.225,39.284z M188.037,39.431
				c0,1.028,0.244,1.816,0.732,2.363s1.092,0.82,1.807,0.82c0.717,0,1.318-0.273,1.803-0.82s0.727-1.341,0.727-2.383
				c0-1.016-0.242-1.797-0.727-2.344s-1.086-0.82-1.803-0.82c-0.715,0-1.318,0.273-1.807,0.82S188.037,38.402,188.037,39.431z"/>
			<path fill="#FFFFFF" d="M199.109,41.657l2.754-0.42c0.117,0.534,0.355,0.938,0.713,1.216c0.359,0.277,0.859,0.415,1.504,0.415
				c0.711,0,1.244-0.13,1.602-0.391c0.242-0.183,0.361-0.427,0.361-0.732c0-0.208-0.064-0.381-0.195-0.518
				c-0.137-0.13-0.441-0.251-0.918-0.361c-2.213-0.488-3.615-0.935-4.209-1.338c-0.82-0.56-1.23-1.338-1.23-2.334
				c0-0.898,0.355-1.653,1.064-2.266c0.711-0.612,1.811-0.918,3.301-0.918c1.42,0,2.475,0.231,3.164,0.693
				c0.691,0.462,1.166,1.146,1.426,2.051l-2.588,0.479c-0.109-0.403-0.32-0.713-0.629-0.928s-0.75-0.322-1.324-0.322
				c-0.723,0-1.24,0.101-1.553,0.303c-0.207,0.144-0.313,0.329-0.313,0.557c0,0.195,0.092,0.361,0.273,0.498
				c0.248,0.183,1.104,0.439,2.564,0.771s2.482,0.739,3.061,1.221c0.574,0.488,0.859,1.169,0.859,2.041
				c0,0.95-0.396,1.768-1.191,2.451c-0.793,0.684-1.969,1.025-3.525,1.025c-1.412,0-2.529-0.286-3.354-0.859
				S199.363,42.641,199.109,41.657z"/>
		</g>
	</g>
	<rect x="107.504" y="48.658" fill="#FFFFFF" width="101.292" height="5.019"/>
</g>
</svg>
